<svg class="sonera" version="1" fill="#732d88" xmlns="http://www.w3.org/2000/svg" width="300" height="100" viewBox="0 0 1158.000000 333.000000"><path d="M209 .6c-29.2 3.7-41.3 6-60.5 11.6-28.5 8.3-58 21.7-80 36.3-10.6 7-26.7 19.6-27.3 21.4-.6 1.8 31.6 8.6 53.8 11.3 16.9 2.1 70.6 1.8 85-.5 24.1-3.8 49-11.7 66-20.9 16.1-8.7 34.7-23.1 44.6-34.6l4.8-5.5-3-2.3c-8-6.5-21.4-11.6-38.4-14.9-8.2-1.6-37.6-2.8-45-1.9z"/><path d="M296.5 29.1c-1.6 2.3-7.3 8.3-12.7 13.4-32.4 31.1-75.8 48-129.4 50.2-8.5.3-15.1.9-14.7 1.3.4.4 9.4 2.2 19.8 3.9 29.3 5.1 61.1 11.7 77.3 16.2 19.5 5.5 18.2 5.4 22 2.6 7.1-5.3 26.7-23.5 31.9-29.5 12.5-14.8 21.2-31.1 21.3-39.8 0-4.3-9.6-22.5-11.8-22.4-.4 0-2 1.9-3.7 4.1zM316.6 77c-6.1 11.4-18.1 27.2-31.1 40.8-4.7 4.9-8.5 9.2-8.5 9.5 0 .3 3 2.3 6.8 4.3 9.6 5.4 15.9 10.2 22.5 17.4 3.2 3.4 6 6 6.3 5.8.9-1 4.5-21.3 5.9-33.8 1.6-13 1.9-35.2.6-43l-.7-4.5-1.8 3.5zm115.9 4.1c-20.7 3.4-37.3 14.8-44.8 30.6-3.1 6.6-3.2 7.2-3.2 19.8 0 12.4.1 13.3 3 18.9 3.8 7.6 9.4 13.3 18.1 18.4 8 4.7 16.8 7.8 38.4 13.3 29.1 7.4 37.5 12.5 38.7 23.3.7 5.6-2.3 12.5-6.8 15.9-10.3 7.7-33.9 8.8-46.9 2.2-5.4-2.7-10.6-8.2-12.7-13.4-2.3-5.5-6.2-10.2-9.9-11.7-2.3-.9-7.4-1.4-15.9-1.4H378v4.2c0 2.4.7 7.2 1.5 10.7 6.7 28.2 32.9 45.1 69.8 45.1 13.3 0 21.3-1.2 32-4.7 20.1-6.7 33.1-20.9 36.4-40 2.7-15.9-.9-29.4-10.8-39.8-9.8-10.4-17.2-13.7-49.4-22-22.6-5.9-30.7-8.9-34.5-12.8-6.2-6.4-4.4-17.5 4-23.6 8.5-6.2 24.8-6.7 36.5-1.2 5.4 2.5 7 3.9 9.9 8.4 6.9 10.8 11.9 13.1 28.1 13.2h11l-.2-5.9c-.9-24.2-19.2-42.1-48.2-47-10-1.7-23.3-1.9-31.6-.5zM23.6 89c-7.4 8.1-16.5 26.3-19.7 39.6-2.7 11.4-3 28.9-.5 38.4 3.4 13.1 6.9 21.2 11.1 25.4 23.1 22.8 92 11.2 169.5-28.6 15.6-8 43.6-24.3 48.6-28.3l2.7-2.1-8.9-3.2c-26.9-9.5-70.8-19.5-145.4-33.1-9.1-1.7-25.2-4.8-35.8-6.9L26 86.4 23.6 89zm830.9 37.5c-19.4 4.2-34.1 15.6-42.6 33.1-4.9 10.1-6.9 19.1-6.9 31.4 0 39.6 25.2 65.4 63.5 65.3 11.5 0 16.6-.9 25.9-4.4 14.5-5.4 25.5-17 31.2-33.1l1.3-3.8h-13c-7.8 0-13.9.5-15.2 1.1-1.2.7-4.3 3.2-6.9 5.6-7 6.4-12.6 8.6-22.3 8.6-13-.1-20.8-4-25.7-13-2.5-4.6-5.2-15.9-4.1-17.6.2-.4 20.4-.7 44.8-.7h44.3l.6-2.4c1-4.1-1.2-20.9-3.9-29.2-8.4-26.8-29.9-42.5-57.5-42.3-4.1 0-10.2.6-13.5 1.4zm22.8 25.9c8.1 2.9 13.5 9.7 16.5 20.8l1 3.8h-55.7l.6-3.3c.6-3.4 4.3-11.1 6.5-13.7 6.6-7.7 21-11.2 31.1-7.6zm-299.6-24.8c-11.2 2.7-20.3 7.7-28.1 15.6-12.8 13-17.8 26.3-17.8 47.8 0 20.4 4.9 34.2 16.3 46.5 10.9 11.5 24.9 17.4 43.5 18.3 22.2 1 40.4-5.9 52.8-20 5.4-6.1 10.7-16.5 13.2-25.8 2.3-8.8 2.3-28 0-37.5-5.7-23.2-21.9-39.6-44.8-45-7.9-1.9-27.2-1.8-35.1.1zm29 26c11.9 4.9 18.5 18.2 18.5 37.3-.1 27-10.7 39.9-32.1 39-6.5-.3-8.5-.9-12.6-3.4-10.6-6.6-15.1-18.9-14.3-38.8.6-12.3 2.3-18.7 7-25.4 6.6-9.7 21.7-13.6 33.5-8.7zm479.8-26.6c-8.8 1.2-18.2 3.8-24.3 6.7-11 5.2-20.2 17.5-21.8 29.1l-.7 5.2h12.9c15.5 0 19.2-1.4 23.9-8.7 4.4-7 10.2-9.6 21-9.6 14 0 20.5 4.8 20.5 15.3 0 10-5.1 12.8-29.7 16-20.1 2.7-26.9 4.3-34.1 7.9-7 3.6-12.4 9-15.4 15.6-1.9 4.2-2.3 6.7-2.3 15.5s.4 11.3 2.3 15.4c6.8 14.8 19.2 21.6 39.6 21.6 16 0 28.6-4.3 37.2-12.7l4.4-4.2 1.6 3.2c4.2 8.2 10.1 10.7 25.6 10.7 5.4 0 9.8-.2 9.8-.4s-.8-2.1-1.7-4.2c-1.6-3.5-1.8-9.1-2.3-49.9-.5-45.5-.6-46.1-2.9-51.2-5.9-13.3-21.4-20.5-46.2-21.7-6.3-.2-14.1-.1-17.4.4zm30.5 89.9c-2.1 8-8.2 14-16.4 16.2-5 1.4-19.1.7-22.9-1.1-8.7-4.2-9.6-19.3-1.4-27.1 3.7-3.5 9.6-5.7 21.7-7.8 6.3-1.1 13.3-2.6 15.5-3.4l4-1.4.3 10.4c.1 5.7-.2 12.1-.8 14.2zm-385.2-86c-8.1 2.6-13.9 6.3-19.1 12.1-2.5 2.7-4.8 5-5.1 5-.3 0-.6-3.6-.6-8v-8h-31v121h32.9l.3-38.7c.3-37.6.4-39 2.6-44.5 3.9-9.8 10.5-13.8 22.7-13.8 8.8 0 14.2 3 17.5 9.5l2.5 5 .3 41.2.3 41.3h34.1l-.4-45.3c-.4-38.6-.7-46.1-2.1-51-3.1-10.8-8.9-18.2-17.5-22.6-10.1-5.2-26.8-6.6-37.4-3.2zm274.8.1c-10.1 3.2-18.7 10.3-23.8 19.4-1.7 3.1-1.7 3-1.8-7.7V132h-32v121h32.8l.4-33.8c.4-32 .5-34 2.6-39.3 2.9-7.3 8.2-13.3 14.6-16.7 4.6-2.4 6.3-2.7 16.1-2.9l11-.1v-30.7l-7-.2c-4.7-.2-9 .4-12.9 1.7zM254 147.1c-5.8 5-28.8 22.2-38.8 28.8-38.9 26-82 45.6-117.2 53.4-21.4 4.8-45.3 5.9-59.5 2.7-2.6-.6-4.9-.9-5.1-.8-.5.6 6.1 10.4 11.6 17.3 15.2 18.7 41.7 32.4 68.8 35.6 12 1.5 38.7.6 50.5-1.6 55.7-10.2 112.1-45.1 128.6-79.5 3.1-6.5 3.6-8.5 3.6-15 0-10.3-4-18.8-12.9-27.5-6.4-6.3-21.7-16.5-24.6-16.5-.8.1-3.1 1.5-5 3.1z"/><path d="M279.9 234.6c-5.9 6.4-20.3 18.3-31.1 25.4-45.2 30.2-103.8 44.3-147.4 35.5-6.8-1.4-14.7-3.4-17.5-4.4-3.2-1.3-4.9-1.5-4.6-.8.6 2 17.7 16.3 26.2 22.1 11 7.4 22.4 13 33 16.2 7.8 2.4 10.7 2.8 22 2.8 11.6 0 13.9-.3 21.5-2.8 20.3-6.7 37.1-17.7 56.6-37.1 17.1-17 28.8-32.3 41.8-54.8 3.2-5.3 3-5.9-.5-2.1z"/></svg>
