<svg class="tomato" xmlns="http://www.w3.org/2000/svg" width="80" height="80" viewBox="0 0 32 32"><path fill-rule="evenodd" clip-rule="evenodd" fill="#e74c3c" d="M19.4 10.5v-.2.2zm5.8-5.2c-.4.5-1 .9-1.7 1.4 1.2.9 1.8 2 3.2 1.7 0 0-.3 1.9-2.5 2.7-1.7.6-3.3.4-4.7-.6 0 1.5-.5 4.4-.4 5.8-.1 0-4.9-1.4-5.3-5.7-1.7 1.1-3.4 1.6-6.1.8-1.3-.4-2.5-2.1-2.4-2.7 2.1.1 2-.3 4.1-2.7 0 0 .2-.2.2-.3-.3-.1-.6-.3-.9-.5h-.9C2.4 5.2 0 10.4 0 16s1.9 16 16 16 16-10.5 16-16c0-5.2-2.7-10-6.8-10.7zm-11.1.1c-.7.7-2 .2-2.5.6-2.1 2.1-2.4 3.4-4.1 3.4 0 .4 2 .9 2.6.9 2.4 0 4.9-2.4 4.9-3.8 0 0 .1 1.4.1 2.8 0 3.2 2.5 4.6 2.6 4.6 0-1 .3-2.8.3-3.7 0-2.9-1-2.7-1-3.8.7 0 2.8 3.5 5.4 3.5 1.6 0 2.3-.8 2.3-.8C23 9.1 21.3 6 19.9 6c2 0 4.4-1.4 4.4-2.6-.1 0-.4.3-2.5.3-4.2 0-4 .9-4.6.9 0-2.5 1.1-3.9 1.6-4.2.6-.3.2-.5-.4-.4-1.4.3-3.3 3.7-3.3 4.7-.2-1.4-2.9-2.1-4-2.1-1.6 0-2.1-.7-2.6-1.2.1.2-.6 3.6 5.6 4z"/></svg>
