<svg class="ubiquiti" xmlns="http://www.w3.org/2000/svg" viewBox="0 0 411 461" width="548" height="461pt"><path d="M0 0h25.51c0 8.22-.01 16.44 0 24.66-8.5.04-17.01.01-25.51.02V0z" fill="#39a2e1" class="green"/><path d="M385.66 0H409v207c.01 4.76-.19 9.32.31 14.06-.8 4.29-2.36 8.52-3.6 12.71-4.81 15.42-8.88 30.6-15.53 45.39-11.14 25.46-27.52 48.45-50.35 64.66-18.59 13.41-39.86 21.24-62.26 25.5 2.46-13.33 3.79-26.76 3.77-40.32.02-80.34.01-160.67.01-241.01.04-11.36.56-22.79 3.87-33.73 2.65-9.04 7.23-17.46 13.68-24.35 9.45-10.13 21.37-16.28 34.34-20.74 16.69-5.58 34.91-8 52.42-9.17z" fill="#0d0d0d" class="light" /><path class="path" d="M409 0h2v223.05l-1.69-1.99c-.5-4.74-.3-9.3-.31-14.06V0z" fill="#7b7879"/><path d="M76.77 24.68c8.55-.01 17.1-.01 25.65 0 .01 8.44.01 16.88 0 25.32-8.55.01-17.1.02-25.65 0-.01-8.44-.01-16.88 0-25.32zM51.43 50.41c8.37-.39 16.81-.02 25.19-.13 0 8.44.01 16.89 0 25.34-8.44.01-16.88 0-25.32 0 .11-8.39-.26-16.83.13-25.21zM102.42 62.95c8.54-.02 17.08-.01 25.62 0 .01 8.45.01 16.9 0 25.35-8.53.01-17.07 0-25.6.01-.04-8.45-.02-16.91-.02-25.36zM0 69.13c8.5.01 17-.01 25.5.01 0 46.58-.01 93.15.01 139.73 8.55 0 17.09 0 25.64-.01.03-8.46 0-16.93.02-25.4 8.53 0 17.05 0 25.58.01.02 18.82 0 37.64.01 56.46 8.56.01 17.11.01 25.66 0 .02-31.49 0-62.97.01-94.46 8.54-.01 17.07-.01 25.61 0 .04 61.51-.02 123.02.02 184.53-.02 20.6 4.38 41.14 13.11 59.82 12.08 25.9 31.46 47.83 54.64 64.39 3.09 2.2 6.3 3.72 8.69 6.79h-18.26l4.81-1.11c-7.76-.76-15.54-1.17-23.27-2.22-33.64-4.23-67.51-15.44-95.42-34.99-26.52-18.44-47.54-44.52-59.44-74.58C5.07 328.72 1.2 308.21 0 287.39V69.13z" fill="#39a2e1" class="green" /><path d="M76.92 94.85c8.45-.02 16.9-.02 25.35 0 .01 8.44.01 16.89 0 25.33-8.45.01-16.9.01-25.35 0-.01-8.44-.01-16.89 0-25.33zM51.29 132.86c8.45-.02 16.9-.02 25.35 0v25.33c-8.45.02-16.9.02-25.35 0v-25.33z" fill="#39a2e1" class="green" /><path d="M409.36 257.97c.18 15.48.46 30.67-1.6 46.05-4.19 32.73-17 64.07-38.47 89.27-21.1 25.13-49.8 43.27-80.79 53.63-.47-3.9-1.1-8.01-.98-11.92.11-3.71.87-7.31.94-11 .05-3.65-.7-7.27-.92-11-.48-6.49 1.65-12.46.67-18.99-.91-5.54-.25-10.93.34-16.46 24.82-5.86 48.15-16.71 67.49-33.49 24.82-21.34 41-49.75 51.37-80.5l.25-.73c.56-1.62 1.13-3.24 1.7-4.86z" fill="#989596" class="alt" /><path d="M0 287.39c1.2 20.82 5.07 41.33 12.92 60.71 11.9 30.06 32.92 56.14 59.44 74.58 27.91 19.55 61.78 30.76 95.42 34.99 7.73 1.05 15.51 1.46 23.27 2.22l-4.81 1.11H0V287.39z" fill="#fff"/><path class="path" d="M141.74 360.12c.89.5 1.77 1 2.66 1.5 12.97 7.53 26.99 13 41.6 16.36 19.47 4.6 39.06 5.66 59 5.13 14.74-.54 29.2-2.02 43.55-5.56-.59 5.53-1.25 10.92-.34 16.46.98 6.53-1.15 12.5-.67 18.99.22 3.73.97 7.35.92 11-.07 3.69-.83 7.29-.94 11-.12 3.91.51 8.02.98 11.92-19.5 6.6-40.02 10.45-60.51 12.15-4.12.74-7.99-2.74-11.57-4.49-9.9-5.15-18.93-11.36-27.34-18.69-23-19.79-40.57-45.97-47.34-75.77z" fill="#7b7879"/></svg>
